<svg xmlns="http://www.w3.org/2000/svg" width="26" height="27" fill="none" viewBox="0 0 26 27"><path fill="#037142" d="M16.0554 10.96C15.926 10.5861 15.6897 10.2602 15.377 10.0243C15.0642 9.7883 14.6893 9.65306 14.3004 9.63596H11.7004C11.1832 9.63596 10.6872 9.84521 10.3215 10.2177C9.95585 10.5901 9.7504 11.0953 9.7504 11.6221C9.7504 12.1488 9.95585 12.654 10.3215 13.0265C10.6872 13.3989 11.1832 13.6082 11.7004 13.6082H14.3004C14.8176 13.6082 15.3136 13.8174 15.6793 14.1899C16.045 14.5624 16.2504 15.0675 16.2504 15.5943C16.2504 16.121 16.045 16.6262 15.6793 16.9987C15.3136 17.3712 14.8176 17.5804 14.3004 17.5804H11.7004C11.3115 17.5633 10.9366 17.4281 10.6238 17.1921C10.3111 16.9561 10.0748 16.6302 9.9454 16.2563"/><path fill="#037142" d="M13.0004 17.5804V19.5665Z"/><path fill="#037142" d="M23.4004 13.4999C23.4004 19.2436 18.7442 23.8999 13.0004 23.8999C7.25664 23.8999 2.6004 19.2436 2.6004 13.4999C2.6004 7.75609 7.25664 3.09985 13.0004 3.09985C18.7442 3.09985 23.4004 7.75609 23.4004 13.4999Z"/><path fill="#fff" d="M15.0316 11.3143C15.2273 11.8797 15.8442 12.1795 16.4097 11.9838C16.9751 11.7882 17.2748 11.1712 17.0792 10.6058L15.0316 11.3143ZM14.3004 9.63596L14.348 8.55368C14.3321 8.55298 14.3163 8.55263 14.3004 8.55263L14.3004 9.63596ZM11.7004 13.6082V14.6915V13.6082ZM14.3004 17.5804L14.3004 18.6637L14.3004 17.5804ZM11.7004 17.5804L11.6528 18.6627C11.6687 18.6634 11.6845 18.6637 11.7004 18.6637L11.7004 17.5804ZM10.9692 15.9021C10.7735 15.3367 10.1566 15.0369 9.59114 15.2326C9.02573 15.4282 8.72598 16.0452 8.92163 16.6106L10.9692 15.9021ZM14.0837 7.64985C14.0837 7.05154 13.5987 6.56652 13.0004 6.56652C12.4021 6.56652 11.9171 7.05154 11.9171 7.64985H14.0837ZM11.9171 9.63596C11.9171 10.2343 12.4021 10.7193 13.0004 10.7193C13.5987 10.7193 14.0837 10.2343 14.0837 9.63596H11.9171ZM14.0837 17.5804C14.0837 16.9821 13.5987 16.4971 13.0004 16.4971C12.4021 16.4971 11.9171 16.9821 11.9171 17.5804H14.0837ZM11.9171 19.5665C11.9171 20.1648 12.4021 20.6499 13.0004 20.6499C13.5987 20.6499 14.0837 20.1648 14.0837 19.5665H11.9171ZM17.0792 10.6058C16.8802 10.0307 16.5157 9.52633 16.0294 9.15946L14.7245 10.8891C14.8638 10.9942 14.9719 11.1415 15.0316 11.3143L17.0792 10.6058ZM16.0294 9.15946C15.5429 8.7924 14.9574 8.58047 14.348 8.55368L14.2528 10.7182C14.4212 10.7257 14.5855 10.7842 14.7245 10.8891L16.0294 9.15946ZM14.3004 8.55263H11.7004V10.7193H14.3004V8.55263ZM11.7004 8.55263C10.8894 8.55263 10.1158 8.88094 9.54852 9.45871L11.0946 10.9767C11.2587 10.8095 11.477 10.7193 11.7004 10.7193V8.55263ZM9.54852 9.45871C8.98191 10.0358 8.66707 10.8144 8.66707 11.6221H10.8337C10.8337 11.3763 10.9298 11.1445 11.0946 10.9767L9.54852 9.45871ZM8.66707 11.6221C8.66707 12.4298 8.98191 13.2083 9.54852 13.7854L11.0946 12.2675C10.9298 12.0997 10.8337 11.8679 10.8337 11.6221H8.66707ZM9.54852 13.7854C10.1158 14.3632 10.8894 14.6915 11.7004 14.6915L11.7004 12.5249C11.477 12.5249 11.2587 12.4347 11.0946 12.2675L9.54852 13.7854ZM11.7004 14.6915H14.3004V12.5249H11.7004V14.6915ZM14.3004 14.6915C14.5238 14.6915 14.7421 14.7817 14.9062 14.9489L16.4523 13.4309C15.885 12.8532 15.1114 12.5249 14.3004 12.5249V14.6915ZM14.9062 14.9489C15.071 15.1167 15.1671 15.3485 15.1671 15.5943H17.3337C17.3337 14.7866 17.0189 14.008 16.4523 13.4309L14.9062 14.9489ZM15.1671 15.5943C15.1671 15.8401 15.071 16.0719 14.9062 16.2397L16.4523 17.7577C17.0189 17.1806 17.3337 16.402 17.3337 15.5943H15.1671ZM14.9062 16.2397C14.7421 16.4069 14.5238 16.4971 14.3004 16.4971L14.3004 18.6637C15.1114 18.6637 15.885 18.3354 16.4523 17.7577L14.9062 16.2397ZM14.3004 16.4971H11.7004V18.6637H14.3004V16.4971ZM11.748 16.4981C11.5796 16.4907 11.4153 16.4322 11.2763 16.3273L9.97136 18.0569C10.4579 18.424 11.0434 18.6359 11.6528 18.6627L11.748 16.4981ZM11.2763 16.3273C11.137 16.2222 11.029 16.0748 10.9692 15.9021L8.92163 16.6106C9.12061 17.1856 9.48509 17.69 9.97136 18.0569L11.2763 16.3273ZM11.9171 7.64985V9.63596H14.0837V7.64985H11.9171ZM11.9171 17.5804V19.5665H14.0837V17.5804H11.9171ZM22.3171 13.4999C22.3171 18.6453 18.1459 22.8165 13.0004 22.8165V24.9832C19.3425 24.9832 24.4837 19.8419 24.4837 13.4999H22.3171ZM13.0004 22.8165C7.85495 22.8165 3.68374 18.6453 3.68374 13.4999H1.51707C1.51707 19.8419 6.65833 24.9832 13.0004 24.9832V22.8165ZM3.68374 13.4999C3.68374 8.3544 7.85495 4.18319 13.0004 4.18319V2.01652C6.65833 2.01652 1.51707 7.15778 1.51707 13.4999H3.68374ZM13.0004 4.18319C18.1459 4.18319 22.3171 8.3544 22.3171 13.4999H24.4837C24.4837 7.15778 19.3425 2.01652 13.0004 2.01652V4.18319Z"/></svg>