<svg width="7" height="35" viewBox="0 0 7 35" fill="none" xmlns="http://www.w3.org/2000/svg">
<g id="...">
<path d="M6.49927 31.7135C6.49927 32.6385 6.18283 33.4114 5.54994 34.0321C4.90488 34.6528 4.12594 34.9753 3.21312 34.9997C2.3003 35.0118 1.53962 34.6893 0.931076 34.0321C0.310359 33.3749 0 32.602 0 31.7135C0 30.8129 0.316444 30.0339 0.949332 29.3767C1.58222 28.7195 2.33682 28.403 3.21312 28.4274C3.82167 28.4395 4.37545 28.5978 4.87445 28.902C5.37346 29.1941 5.76902 29.5897 6.06112 30.0887C6.35322 30.5755 6.49927 31.1171 6.49927 31.7135Z" fill="white"/>
<path d="M6.49927 17.5557C6.49927 18.4807 6.18283 19.2535 5.54994 19.8743C4.90488 20.495 4.12594 20.8175 3.21312 20.8418C2.3003 20.854 1.53962 20.5315 0.931076 19.8743C0.310359 19.217 0 18.4442 0 17.5557C0 16.655 0.316444 15.8761 0.949332 15.2189C1.58222 14.5616 2.33682 14.2452 3.21312 14.2695C3.82167 14.2817 4.37545 14.4399 4.87445 14.7442C5.37346 15.0363 5.76902 15.4319 6.06112 15.9309C6.35322 16.4177 6.49927 16.9593 6.49927 17.5557Z" fill="white"/>
<path d="M6.49927 3.39787C6.49927 4.32286 6.18283 5.09572 5.54994 5.71643C4.90488 6.33715 4.12594 6.65968 3.21312 6.68402C2.3003 6.69619 1.53962 6.37366 0.931076 5.71643C0.310359 5.0592 0 4.28635 0 3.39787C0 2.49723 0.316444 1.71828 0.949332 1.06105C1.58222 0.403824 2.33682 0.0873833 3.21312 0.111725C3.82167 0.123894 4.37545 0.282116 4.87445 0.586388C5.37346 0.87849 5.76902 1.27405 6.06112 1.77306C6.35322 2.25989 6.49927 2.8015 6.49927 3.39787Z" fill="white"/>
</g>
</svg>
