<svg width="203" height="204" viewBox="0 0 203 204" fill="none" xmlns="http://www.w3.org/2000/svg">
<g id="Group 41">
<path id="Star 1" d="M155.44 139.236C155.89 144.117 152.195 148.521 147.31 148.925C143.585 149.233 140.385 151.919 139.435 155.533C138.188 160.274 133.21 163.148 128.481 161.857C124.876 160.873 120.95 162.302 118.821 165.373C116.028 169.402 110.367 170.4 106.365 167.569C103.314 165.412 99.1356 165.412 96.0845 167.569C92.0824 170.4 86.4212 169.402 83.6285 165.373C81.4995 162.302 77.5734 160.873 73.9683 161.857C69.2395 163.148 64.2611 160.274 63.0147 155.533C62.0644 151.919 58.8638 149.233 55.1396 148.925C50.2545 148.521 46.5594 144.117 47.0095 139.236C47.3526 135.515 45.2636 131.896 41.8694 130.333C37.4172 128.282 35.451 122.88 37.5435 118.448C39.1386 115.068 38.4131 110.954 35.7583 108.324C32.276 104.874 32.276 99.1253 35.7583 95.6755C38.4131 93.0455 39.1387 88.9309 37.5435 85.5515C35.451 81.1187 37.4172 75.7168 41.8694 73.6661C45.2636 72.1027 47.3526 68.4843 47.0095 64.7632C46.5594 59.882 50.2545 55.4784 55.1396 55.0741C58.8638 54.7659 62.0644 52.0803 63.0147 48.4661C64.2611 43.7254 69.2395 40.8511 73.9683 42.142C77.5734 43.1262 81.4995 41.6972 83.6285 38.626C86.4212 34.5975 92.0824 33.5993 96.0845 36.4297C99.1356 38.5874 103.314 38.5874 106.365 36.4297C110.367 33.5993 116.028 34.5975 118.821 38.626C120.95 41.6972 124.876 43.1262 128.481 42.142C133.21 40.8511 138.188 43.7254 139.435 48.4661C140.385 52.0803 143.585 54.7659 147.31 55.0741C152.195 55.4784 155.89 59.882 155.44 64.7632C155.097 68.4844 157.186 72.1027 160.58 73.6661C165.032 75.7168 166.998 81.1187 164.906 85.5515C163.311 88.9309 164.036 93.0455 166.691 95.6755C170.173 99.1253 170.173 104.874 166.691 108.324C164.036 110.954 163.311 115.068 164.906 118.448C166.998 122.88 165.032 128.282 160.58 130.333C157.186 131.896 155.097 135.515 155.44 139.236Z" fill="#C0F7FF"/>
<path id="-&#62;" d="M79.0963 104.77L82.8191 101.08L98.0065 116.606L98.4445 76.8342L103.773 76.8929L103.335 116.665L118.812 101.477L122.502 105.248L100.56 126.712L79.0963 104.77Z" fill="#192928"/>
</g>
</svg>
