<svg width="112" height="109" viewBox="0 0 112 109" fill="none" xmlns="http://www.w3.org/2000/svg">
<rect width="112" height="109" rx="5" fill="url(#paint0_linear_106_16)"/>
<g clip-path="url(#clip0_106_16)">
<path d="M43.4481 17C52.3845 17.0327 61.3257 17 70.2621 17.0187C73.6816 17.1355 77.0871 17.9063 80.1889 19.3591C80.4552 19.5226 80.7355 19.6534 81.0251 19.7748C81.4362 20.0037 81.8567 20.2373 82.2491 20.4989C85.3789 22.3208 88.0043 24.9368 90.013 27.9358C90.8071 29.2065 91.4985 30.5378 92.1011 31.9066C92.9093 33.9854 93.4979 36.1623 93.7128 38.3859C93.7735 38.7596 93.8249 39.1426 93.8249 39.5257C93.8249 49.4665 93.8202 59.412 93.8296 69.3528C93.6754 71.8007 93.1709 74.2345 92.3113 76.5375C92.0638 77.0841 91.8956 77.668 91.5826 78.1865C91.4331 78.5603 91.2462 78.9106 91.05 79.261C90.9987 79.3684 90.9006 79.5833 90.8492 79.6908C90.5222 80.2607 90.1485 80.7979 89.7981 81.3585C89.1161 82.4002 88.2846 83.3298 87.5091 84.3061C85.9909 85.8617 84.3138 87.2818 82.4359 88.3796C81.2821 89.1598 80.0114 89.7764 78.7034 90.2622C76.036 91.3694 73.1491 91.8879 70.2715 91.972C52.8517 92 35.4319 91.9486 18.0074 91.9953C18.0261 75.8975 18.0074 59.7998 18.0167 43.6973C18.0307 43.1788 18.0261 42.6556 17.998 42.1324C26.4814 42.1697 34.9647 42.0903 43.4481 42.1697C43.4808 33.7798 43.4808 25.3899 43.4481 17ZM66.7025 42.2351C58.9899 42.2305 51.2774 42.2445 43.5602 42.2305C43.5555 50.4382 43.5789 58.6412 43.5508 66.8443C51.9034 66.8443 60.2606 66.8536 68.6131 66.8396C68.5851 58.6179 68.5851 50.4008 68.6131 42.1791C67.9778 42.2632 67.3425 42.2351 66.7025 42.2351Z" fill="white"/>
</g>
<defs>
<linearGradient id="paint0_linear_106_16" x1="3.5" y1="2.21057e-06" x2="108.5" y2="109" gradientUnits="userSpaceOnUse">
<stop stop-color="#FF5C00"/>
<stop offset="1" stop-color="#FFE600"/>
</linearGradient>
<clipPath id="clip0_106_16">
<rect width="75.8315" height="75" fill="white" transform="translate(18 17)"/>
</clipPath>
</defs>
</svg>
