<svg xmlns="http://www.w3.org/2000/svg" width="23" height="21" fill="none" viewBox="0 0 23 21"><path fill="#FFE600" d="M10.8763 0.935061C11.0953 0.491373 11.728 0.491373 11.9469 0.935061L14.7816 6.67865C14.8685 6.85484 15.0366 6.97696 15.231 7.00521L21.5695 7.92624C22.0591 7.99739 22.2546 8.59911 21.9003 8.94447L17.3138 13.4152C17.1731 13.5524 17.1089 13.75 17.1421 13.9436L18.2248 20.2564C18.3085 20.7441 17.7966 21.116 17.3587 20.8857L11.6894 17.9052C11.5155 17.8138 11.3077 17.8138 11.1338 17.9052L5.46457 20.8857C5.02662 21.116 4.51477 20.7441 4.59841 20.2564L5.68114 13.9436C5.71436 13.75 5.65016 13.5524 5.50946 13.4152L0.922932 8.94447C0.568626 8.59911 0.764136 7.99739 1.25377 7.92624L7.5922 7.00521C7.78664 6.97696 7.95472 6.85484 8.04168 6.67865L10.8763 0.935061Z"/></svg>