<svg width="22" height="21" viewBox="0 0 22 21" fill="none" xmlns="http://www.w3.org/2000/svg">
<path d="M10.5158 0.935061C10.7347 0.491373 11.3674 0.491373 11.5864 0.935061L14.421 6.67865C14.508 6.85484 14.6761 6.97696 14.8705 7.00521L21.2089 7.92624C21.6986 7.99739 21.8941 8.59911 21.5398 8.94447L16.9532 13.4152C16.8126 13.5524 16.7484 13.75 16.7816 13.9436L17.8643 20.2564C17.9479 20.7441 17.4361 21.116 16.9981 20.8857L11.3289 17.9052C11.155 17.8138 10.9472 17.8138 10.7733 17.9052L5.10403 20.8857C4.66609 21.116 4.15424 20.7441 4.23788 20.2564L5.32061 13.9436C5.35382 13.75 5.28962 13.5524 5.14893 13.4152L0.562397 8.94447C0.208091 8.59911 0.403601 7.99739 0.89324 7.92624L7.23167 7.00521C7.4261 6.97696 7.59419 6.85484 7.68114 6.67865L10.5158 0.935061Z" fill="#FFE600"/>
</svg>
