<svg width="22" height="21" viewBox="0 0 22 21" fill="none" xmlns="http://www.w3.org/2000/svg">
<path d="M10.1555 0.935305C10.3745 0.491617 11.0071 0.491617 11.2261 0.935305L14.0607 6.67889C14.1477 6.85508 14.3158 6.9772 14.5102 7.00546L20.8486 7.92648C21.3383 7.99763 21.5338 8.59935 21.1795 8.94471L16.593 13.4155C16.4523 13.5526 16.3881 13.7502 16.4213 13.9439L17.504 20.2567C17.5876 20.7443 17.0758 21.1162 16.6378 20.886L10.9686 17.9055C10.7947 17.814 10.5869 17.814 10.413 17.9055L4.74374 20.886C4.3058 21.1162 3.79395 20.7443 3.87759 20.2567L4.96032 13.9439C4.99353 13.7502 4.92933 13.5526 4.78864 13.4155L0.202106 8.94471C-0.152199 8.59935 0.043311 7.99763 0.532949 7.92648L6.87138 7.00546C7.06581 6.9772 7.2339 6.85508 7.32085 6.67889L10.1555 0.935305Z" fill="#FFE600"/>
</svg>
