<svg width="22" height="21" viewBox="0 0 22 21" fill="none" xmlns="http://www.w3.org/2000/svg">
<path d="M10.7951 0.935305C11.014 0.491617 11.6467 0.491617 11.8657 0.935305L14.7003 6.67889C14.7873 6.85508 14.9554 6.9772 15.1498 7.00546L21.4882 7.92648C21.9779 7.99763 22.1734 8.59935 21.8191 8.94471L17.2325 13.4155C17.0918 13.5526 17.0276 13.7502 17.0609 13.9439L18.1436 20.2567C18.2272 20.7443 17.7154 21.1162 17.2774 20.886L11.6082 17.9055C11.4343 17.814 11.2265 17.814 11.0526 17.9055L5.38333 20.886C4.94539 21.1162 4.43353 20.7443 4.51717 20.2567L5.59991 13.9439C5.63312 13.7502 5.56892 13.5526 5.42822 13.4155L0.841694 8.94471C0.487388 8.59935 0.682898 7.99763 1.17254 7.92648L7.51096 7.00546C7.7054 6.9772 7.87348 6.85508 7.96044 6.67889L10.7951 0.935305Z" fill="#FFE600"/>
</svg>
