<svg width="26" height="26" viewBox="0 0 26 26" fill="none" xmlns="http://www.w3.org/2000/svg">
<rect width="25.4417" height="25.4417" transform="translate(0 0.0583496)" fill="white"/>
<path d="M12.1851 2.93506C12.4041 2.49137 13.0367 2.49137 13.2557 2.93506L16.0903 8.67865C16.1773 8.85484 16.3454 8.97696 16.5398 9.00521L22.8782 9.92624C23.3679 9.99739 23.5634 10.5991 23.2091 10.9445L18.6226 15.4152C18.4819 15.5524 18.4177 15.75 18.4509 15.9436L19.5336 22.2564C19.6172 22.7441 19.1054 23.116 18.6674 22.8857L12.9982 19.9052C12.8243 19.8138 12.6165 19.8138 12.4426 19.9052L6.77335 22.8857C6.3354 23.116 5.82355 22.7441 5.90719 22.2564L6.98992 15.9436C7.02313 15.75 6.95893 15.5524 6.81824 15.4152L2.23171 10.9445C1.8774 10.5991 2.07291 9.99739 2.56255 9.92624L8.90098 9.00521C9.09541 8.97696 9.2635 8.85484 9.35045 8.67865L12.1851 2.93506Z" fill="#FFE600"/>
</svg>
