<svg width="144" height="144" viewBox="0 0 144 144" fill="none" xmlns="http://www.w3.org/2000/svg">
<g id="Group 42">
<path id="Star 1" d="M65.5259 6.53409C68.9757 3.05176 74.7243 3.05176 78.1741 6.53409C80.8041 9.1889 84.9187 9.91441 88.2981 8.31923C92.7309 6.22681 98.1328 8.19292 100.183 12.6452C101.747 16.0394 105.365 18.1284 109.086 17.7853C113.968 17.3351 118.371 21.0302 118.775 25.9153C119.084 29.6396 121.769 32.8402 125.383 33.7904C130.124 35.0369 132.998 40.0153 131.708 44.7441C130.723 48.3491 132.152 52.2752 135.224 54.4043C139.252 57.197 140.25 62.8582 137.42 66.8603C135.262 69.9114 135.262 74.0894 137.42 77.1405C140.25 81.1426 139.252 86.8038 135.224 89.5965C132.152 91.7256 130.723 95.6516 131.708 99.2567C132.998 103.986 130.124 108.964 125.383 110.21C121.769 111.161 119.084 114.361 118.775 118.085C118.371 122.971 113.968 126.666 109.086 126.216C105.365 125.872 101.747 127.961 100.183 131.356C98.1328 135.808 92.7309 137.774 88.2981 135.682C84.9187 134.086 80.8041 134.812 78.1741 137.467C74.7243 140.949 68.9757 140.949 65.5259 137.467C62.8959 134.812 58.7813 134.086 55.4019 135.682C50.9691 137.774 45.5672 135.808 43.5165 131.356C41.9531 127.961 38.3348 125.872 34.6136 126.216C29.7325 126.666 25.3289 122.971 24.9245 118.085C24.6163 114.361 21.9307 111.161 18.3166 110.21C13.5759 108.964 10.7016 103.986 11.9925 99.2567C12.9766 95.6516 11.5476 91.7256 8.47644 89.5965C4.44796 86.8038 3.44974 81.1426 6.28011 77.1405C8.4379 74.0894 8.43789 69.9114 6.28011 66.8603C3.44974 62.8582 4.44796 57.197 8.47644 54.4043C11.5476 52.2752 12.9766 48.3491 11.9925 44.7441C10.7016 40.0153 13.5759 35.0369 18.3166 33.7904C21.9307 32.8402 24.6163 29.6396 24.9245 25.9153C25.3289 21.0302 29.7325 17.3351 34.6136 17.7853C38.3348 18.1284 41.9531 16.0394 43.5165 12.6452C45.5672 8.19293 50.9691 6.22681 55.4019 8.31923C58.7813 9.91441 62.8959 9.1889 65.5259 6.53409Z" fill="#C0F7FF"/>
<path id="-&#62;" d="M88.1965 87.1702L82.9771 86.69L85.1082 65.0761L54.3596 90.3055L50.9793 86.1857L81.7279 60.9563L60.1447 58.8627L60.6623 53.6126L91.2082 56.6244L88.1965 87.1702Z" fill="#192928"/>
</g>
</svg>
